<?xml version="1.0" encoding="UTF-8"?><svg id="_イヤー_1" xmlns="http://www.w3.org/2000/svg" viewBox="0 0 566.19 689.67"><defs><style>.cls-1{fill:#6c6c6c;}</style></defs><path class="cls-1" d="M240.49,0c-.91,2.32-1.37,4.94-2.81,6.9-3.28,4.45-6.25,8.88-6.6,15.06,1.77-.53,3.03-.6,3.9-1.2,18.54-12.77,39.53-14.14,61.11-11.37,55.03,7.95,76.87,15.4,120.5,48.58,3.98,2.97,7.31,6.86,10.48,10.67,11.53,13.82,22.89,27.78,34.28,41.71,9.38,11.48,11.75,25.28,13.37,39.07,1.28,10.93,2.13,22.1,1.24,33.02-.63,7.85-4.28,15.51-6.86,23.17-2.47,7.33-5.56,14.47-7.89,21.84-1.76,5.55-7.11,9.92-5.51,16.75,.36,1.54-3.12,3.89-3.83,5.81-1.06,3.57-2.03,7.17-3.18,10.71-2.8,8.63-9.37,16.18-8.14,25.89-.3,.3-.53,.77-.83,.81-9.94,1.54-10.46,2.55-10.98,12.6-.33,6.32-1.49,12.66-2.96,18.85-3.61,15.19-7.5,30.32-11.55,45.41-1.29,4.82,.47,6.85,5.3,6.85,7.85,0,15.82,.59,23.53-.44,19.22-2.55,30.82-13.98,36.79-31.02,2.58-7.38,6.44-14.73,.19-22.41-7.59-9.34-15.68-17.45-29.48-17.06-3.01,.09-7.44,1.69-8.13-2.87-.12-.78,5.13-2.9,8.1-3.43,18.92-3.36,45.9,20.7,39.22,42.51-9.67,31.55-37.4,48.43-71.14,40.64-8.33-1.92-8.42-1.76-13.02,5.56-11.55,18.36-22.78,36.93-34.97,54.9-13.72,20.24-33.94,30.77-59.04,33.06-4.9,.45-9.91,.93-14.52,2.39-2.16,.69-5.11,3.93-4.9,5.7,.72,5.99,2.91,11.59,9.09,14.99,2.39,1.31,4.1,3.74,6.13,5.66-.32,.52-.65,1.05-.97,1.57-1.43,.15-2.99,.72-4.28,.38-9.97-2.61-17.91-11.62-18.62-21.86-.29-4.12-1.72-5.07-5.74-4.74-6.87,.56-13.84,.3-20.66,1.13-1.93,.23-4.78,2.89-5.04,4.72-1.77,12.17-1.58,12.2-8.38,22.7,4.48,.77,8.52,1.82,12.63,2.11,23.31,1.65,46.49,1.92,68.81-6.42,35.43-14.63,91.41,34.58,122.45,50.62,23.65,13.39,43.01,32.41,61.61,51.56,18.85,19.41,36.15,40.19,54.06,60.43,1.35,1.53,2.81,3.48,2.96,5.33,.14,1.67-1.06,3.93-2.45,5.01-.67,.52-3.72-.64-4.72-1.8-10.65-12.29-21.23-24.64-31.59-37.15-24.08-29.09-52.08-54.38-82.66-77.13-6.05-4.5-12.99-7.92-19.52-11.84l-1.28,1.81c27.49,20.32,49.63,46.15,74.25,69.39,17.45,16.81,35.32,33.22,52.89,49.92,1.17,1.12,2.39,3.81,1.81,4.62-.98,1.38-3.93,2.98-5.08,2.48-3.6-1.58-7.24-3.63-9.97-6.33-12.73-12.57-25.06-25.52-37.72-38.16-39.04-38.88-76.62-80.02-125.06-108.72-5.95-3.52-11.69-7.38-17.73-11.22-9.68,8.62-23.78,9.84-37.01,12-23.42,3.82-46.99,8.15-70.97,4.94-4.41-.59-9.13-2-12.75-4.35-9.44-6.14-28.83-6.49-39.4-2.22-33.72,13.6-58.29,38.69-85.85,60.11-27.25,21.18-50.57,45.81-71.96,72.2-3.81,4.71-6.67,10.11-10.12,15.09-1.17,1.69-2.56,3.43-4.28,4.54-2.55,1.65-4.99,.79-4.85-2.26,.14-3.05,.61-6.61,2.38-8.97,18.1-24.23,37.39-47.51,61.28-66.95,18.74-15.25,37.4-30.57,56.12-45.84,.58-.47,1.44-.63,3.09-1.31-6.92-1.62-14.28,.29-20.74,5.59-10.61,8.7-20.82,17.84-31.19,26.8-29.67,23.31-51.86,52.9-75.85,81.01-1.86,2.12-2.9,4.87-4.4,7.29-1.21,1.95-2.53,3.84-3.8,5.75-2.34-1.46-4.69-2.93-7.03-4.39v-1.13c52.56-66.81,96.72-116.15,177.98-152.9,6.76-3.13,12.79-7.98,18.54-12.71,3.52-2.9,6.74-4.14,11.2-3.14,7.29,1.64,14.59,3.27,21.96,4.47,1.98,.32,5.31-.24,6.18-1.53,3.18-4.69,6.09-9.68,8.16-14.9,2.49-6.25,1.11-8-5.81-9.08-7.56-1.18-15.33-1.54-22.67-3.42-8.71-2.24-17.02-5.83-25.58-8.63-14.96-4.89-28.82-11.7-39.33-23.12-11.42-12.4-21.99-25.52-33.09-38.19-1.27-1.45-4.54-3.35-5.31-2.85-8.93,5.79-17.99,2.41-26.93,.67-20.68-4.03-34.97-14.9-41.93-34.53-6.61-18.63-3.86-29.76,12.22-42.16,6.97-5.38,10.66-19.7,6.41-27.12-1.72-3-5.23-5.03-7.41-7.86-31.21-39.52-26.69-93.43-19.37-139.34,3.97-25.49,17-47.65,36.71-66.1,13.32-12.47,26.64-25.13,35.76-41.04,.73-1.27,2.6-2.05,4.07-2.83,3.39-1.8,6.79-3.64,10.32-5.15,6.2-2.65,12.29-5.92,18.81-7.38,9.9-2.21,20.27-2.54,30.19-4.68,9.92-2.14,19.68-3.67,29.85-2.24,2.57,.36,5.31-.27,8.07-.46-1.28-9.05-10.82-8.17-15.31-13.72,3.7-.98,7.82-2.1,10.54-.72,4.17,2.12,7.47,5.88,10.96,9.12,2.16,2.01,3.99,4.33,6.11,6.66,4.76-7.42,9.02-14.07,13.29-20.72h5.92Zm-41.77,227.87c-1.54,2.01-2.23,3.4-3.35,4.28-8.63,6.76-16.88,14.09-26.15,19.96-13.91,8.8-28.6,16.47-42.83,24.82-3.5,2.05-6.33,5.15-9.86,7.14-1.62,.91-4.18,.29-6.31,.37,.97-1.68,1.87-3.39,2.92-5.02,1.13-1.76,3.73-3.76,3.38-5.09-1.84-6.93,1.94-11.42,6.9-15.02,12.3-8.99,20.95-21.01,27.37-34.22-1.03-.6-1.35-.94-1.7-.97-.55-.04-1.25-.05-1.65,.23-9.29,6.49-20.38,11.33-23.58,23.41-.26,.99-1.19,1.89-1.96,2.69-2.8,2.89-5.7,5.69-8.5,8.59-9.82,10.16-18.07,21.97-32.57,27.16-1.19,.43-2.2,3.82-1.76,5.47,11.35,39.63,22.61,80.12,49.75,113.12,13.88,17.92,27.66,36.77,49.2,46.99,43.29,22.22,83.18,19.17,130.03,12.49,13.16-1.86,27.04-3.38,37.41-12.32,8.09-6.98,15.86-14.76,21.86-23.39,11.61-16.72,22.02-34.2,32.59-51.55,2.83-4.65,5.21-9.79,6.52-15,5.36-21.27,10.43-42.61,15.16-64.01,1.6-7.24,1.89-14.74,2.96-23.58-14.21,5.58-19.84-4.75-28.69-10.7-17-10.7-27.56-26.69-37.71-42.75-5.69-9.32-7.89-19.8-12.79-29.75-10.84,8.46-18.58,19.28-29.53,27.39-17.69,13.52-38.39,22.14-59.09,30.74-8.49,3.53-16.15,9.05-23.78,14.2-5.28,3.57-9.74,8.2-14.83,12.06-1.22,.93-3.46,.64-5.24,.91,.08-3.46,.7-7.02,2.71-9.94,1.89-2.71,3.57-6.24,6.33-7.59,20.65-10.15,32.06-27.13,39.3-47.21,1.16-3.21,.79-6.91,1.13-10.38-.56-.1-1.12-.21-1.67-.31-11.85,16.87-23.96,33.65-37.11,49.63-.89,1.07-2.81,1.57-4.36,1.88-3.25,.66-6.96,.28-9.79,1.63-15.47,7.42-30.69,15.3-46.1,22.83-2.39,1.17-5.34,1.3-9.93,2.34,3.62-5.11,2.5-7.8-2.33-9.48,21.72-14.2,47.49-26.01,57.07-51.05,1.57-4.02,1.38-8.67,2-13.04l-2.08-.46c-5.98,7.62-11.96,15.25-18.7,23.83,3.77-.53,6-.84,9.35-1.31Zm-121.83,92.94c-.68,.4-1.35,.8-2.03,1.2-4.2,1.29-9.09,1.68-12.47,4.04-9.5,6.63-15.89,14.38-14.12,27.39,3.23,23.68,15.34,34.95,37.45,40.78,8.4,2.22,17.25,2.84,25.23-1.07-11.12-24.7-22.02-48.2-30.49-73.52-2.2-5.79-5.31-6.9-13.02-2.87,3.67,1.58,6.56,2.82,9.45,4.06ZM314.09,61.15c-.6,.47-1.21,.93-1.81,1.4,.11,.7,.1,1.45,.36,2.09,4.37,10.53,7.03,21.32,7.67,32.74,.27,4.79,3.43,9.39,4.98,14.16,.54,1.64,.43,3.57,.19,5.31-.2,1.43-1.69,2.89-1.47,4.15,1.36,7.81,3.03,15.56,4.83,24.45,8.55-8.02,2.16-16.38,3.4-23.83q9.11,.73,11.89-7.57c1.01-3.03,1.86-6.12,3.1-9.07,2.2-5.24,3.99-5.44,8.53-1.65,1.61,1.34,3.76,2.09,5.66,3.11,.61-.67,1.22-1.33,1.83-2-4.4-5.72-9.26-11.19-13.28-17.14-5.86-9.54-11.44-19.23-17.33-28.74-2.36-3.81-5.68-6.64-11.41-6.42-.51,5.71,3.18,9.67,5.93,13.72,4.15,6.11,10.41,11.32,7.18,19.85-.35,.93,.36,2.19,.47,3.31,.67,7.03,1.31,14.07,2.02,21.74-7.15-1.01-7.64-5.96-7.5-9.79,.45-12.32-4.77-23-9.68-33.78-1.07-2.34-3.66-4.05-5.55-6.05Zm71.58,168.9c.95-.16,1.9-.32,2.85-.49-2.11-10.64-3.03-21.66-6.57-31.85-8.67-24.62-19.45-48.59-28.58-73.07-.48-1.13-2.12-2.49-3.25-2.52-1.11-.02-3.03,1.37-3.26,2.41-1.07,4.85-3.31,10.19-2.1,14.61,2.56,9.33,6.93,18.23,10.71,27.25,2.57,6.13,4.03,13.53,14.67,11.59-3.71,20.51,9.26,35.26,15.52,52.07ZM281.65,52.53l-1.83,.8c-.08,.92-.3,1.86-.21,2.77,1.2,12.3,2.24,24.62,3.86,36.87,.28,2.14,2.96,4.02,4.62,5.95,1.02,1.19,2.98,2.14,3.19,3.39,1.53,9.48,2.67,19.02,4.08,28.53,.22,1.46,1.2,2.81,1.83,4.22l1.86-.14c1.69-7.65-1.05-15.14-1.62-22.75-.13-1.27,1.23-2.68,1.9-4.03,1.39,.85,3.54,1.42,4.01,2.6,1.18,2.92,1.52,6.14,2.33,9.2,.49,1.83,1.24,3.6,2.5,7.17,2.84-4.77,4.87-7.88,6.59-11.13,2.95-5.56,0-10.56-6.27-12.35-7.59-2.12-10.97-9.63-13.41-16.18-3.53-9.7-6.61-19.56-10.05-29.29-.71-2.01-2.22-3.75-3.37-5.62Zm138.52,86.04l-2.09,.8c.43,2.63,.64,5.31,1.32,7.88,3.39,12.83,5.79,25.88,14.24,37.14,2.99,3.98,3.92,9.74,4.6,14.84,1.69,12.66-1.22,24.98-4.21,37.24-.57,2.35-.39,4.87-.55,7.3l2.35,1.13c5.07-6,10.29-11.89,15.01-18.13,.5-.66-1.49-4.31-3-4.85-4.64-1.65-4.85-4.34-4.3-8.43,4.33-24.86-8.41-45.91-17.86-67.92-1.07-2.62-3.62-4.68-5.49-7Zm-175.41,6.75c4.34-4.8,7.8-14.19,8.47-22.18,.16-1.92,1.06-3.81,1.8-5.65,.98-2.43,2.93-4.77,3.05-7.21,.18-3.92,.7-6.57,5.68-6.57,4.27,0,4.73-2.89,3.85-5.94-4.22-14.61-8.51-29.2-12.94-43.76-.63-2.06-2.13-3.88-3.23-5.81l-2.03,.71c2.83,16.34,5.65,32.68,8.61,49.78-1.21,1.32-7.35-.06-5.38,5.43,1.75,4.9,.94,7.75-5.38,7.08-.78-.08-1.84,.68-2.5,1.31-7.13,6.78-7.11,25.39,0,32.81Zm20.09,89.35l1.76,1.27c2.02-1.85,4.35-3.48,6-5.59,9.97-12.79,19.79-25.68,29.64-38.56,11.53-15.07,17.88-31.97,19.58-50.49,.14-1.52-.43-3.09-.73-5.06-1.17,.74-1.87,.93-2.09,1.35-5.63,11.12-11.23,22.26-16.74,33.44-.47,.96-.08,2.27-.41,3.33-1.63,5.26-2.3,11.14-5.29,15.6-9.92,15.3-22.52,28.98-31.74,44.71Zm139.46-29.39c.6,.1,1.21,.2,1.81,.29,1.05-1.91,3.25-4,2.96-5.71-2.01-11.93-2.84-24.03-9.08-35.19-4.18-7.49-8.86-14.47-9.53-24.32-.62-9.12-8.89-17.87-14.29-26.5-.85-1.36-4.32-1.23-6.57-1.78,.06,1.91-.38,4.01,.3,5.7,1.05,2.59,2.97,4.83,4.34,7.32,4.09,7.42,9.1,14.56,11.93,22.4,6.82,19.01,11.76,38.63,18.14,57.8Zm-44.88-159.71c-4.23-.42-7.62,.15-9.84-1.13-7.55-4.35-15.29-8.7-21.79-14.29-5.63-4.84-11.52-8.88-18.78-9.79-10.63-1.34-21.43-1.52-32.16-2.13-.4-.02-.85,.58-1.81,1.29,10.46,5.49,21.25,8.37,32.61,9.84,5.25,.68,11.37,.79,15.41,3.46,11.89,7.88,22.92,16.94,34.34,25.48,1.55,1.16,3.39,1.98,6.31,3.65-2.12-6.47-9.35-9.42-4.3-16.37Zm-47.62,56.83c.91-.22,1.83-.43,2.74-.65-.91-5.41-2.08-10.79-2.68-16.23-1.67-15.01-7.89-28.22-17.91-39.65-4.45-5.08-10.2-9.19-15.66-13.38-1.61-1.23-4.27-1.21-6.45-1.76l-.82,1.75c4.35,3.65,9.75,6.63,12.84,11.07,8.79,12.62,16.98,25.62,21.03,40.59,1.69,6.23,4.57,12.18,6.9,18.25Zm-113.35-45.97c-1.97,15.24-3.8,30.31-5.78,45.52-.46,3.53,1.35,5.43,4.74,5.81,3.23,.37,4.82-1.15,5.39-4.45,1.87-10.85,3.89-21.68,6.29-32.43,2.14-9.6,.93-11.7-10.65-14.45Zm225.57,21.35c-4.3-13.71-58.16-50.28-71.15-47.48,6.71,4.24,13.31,7.9,19.33,12.29,16.87,12.32,31.53,27.49,51.83,35.19ZM111.01,207.01c.72,6.83,.79,12.59,2.07,18.09,1.03,4.41,6.02,5.47,10.54,3.45,1.56-.69,3.8-.62,5.54-.2,3.69,.89,6.06,0,5.98-3.76-.08-3.67,2.75-4.49,4.87-6.58,5.71-5.65,10.62-12.14,15.12-18.74,1.54-2.26,.31-5.38-3.48-6.45-4.14-1.18-5.42,1.86-5.46,4.09-.26,12.36-8.24,17.47-19.47,19.89-.32,.07-.57,.44-.84,.67,.38,1.6,.75,3.12,1.24,5.17-9.42-1.51-8.23-11.48-16.1-15.63Zm306.88,58.2l3.47,.2c.91-3,2.52-5.99,2.58-9.01,.1-4.82-2.1-9.93-1.02-14.41,1.65-6.87-.6-12.84-1.96-19.15-.77-5.14-1.66-10.25-3.04-15.28-.86-.05-1.72-.1-2.59-.14-1,3.14-2.97,6.31-2.83,9.4,.57,12.3,1.67,24.59,2.86,36.85,.38,3.89,1.65,7.7,2.51,11.54Zm-21.69-194.73l-2.45,1.29c2.03,4.94,4.32,9.79,6.02,14.83,2.47,7.31,9.59,13.79,4.81,22.55-.26,.48,.29,1.44,.62,2.11,2.88,5.94,5.52,12.01,8.88,17.7,.9,1.52,4.01,1.87,6.1,2.76,.44-1.84,1.58-3.83,1.18-5.48-1.14-4.72-2.6-9.42-4.48-13.92-4.92-11.76-10.01-23.46-15.32-35.06-1.15-2.52-3.53-4.53-5.34-6.77ZM158.75,244.14l1.75,1.19c13.94-9.1,19.98-24.72,29.22-37.4,2.72-3.81,1.11-7.88-3.51-11.02-14.06,13.42-16.8,32.36-27.47,47.22Zm25.45-152.25l-1.65-.22c-1.67,4.93-3.54,9.8-4.9,14.81-.59,2.18-.84,4.91,.03,6.88,1.5,3.42,1.05,6.07-1.34,8.72-3.68,4.36-8.66,8.55-10.46,13.95-1.37,5.97-2.28,12.04-3.11,18.11-.21,1.53,.56,3.18,1.02,5.43,1.67-1.18,2.81-1.57,3.15-2.29,5.65-11.86,11.47-23.66,16.54-35.74,1.03-2.46-1-6.01-1.32-9.08,.02-6.84,1.44-13.72,2.05-20.56Zm243.51,121.95c.89-.29,1.79-.57,2.68-.86-3.95-22.28-11.16-43.59-22.63-63.83-1.1,1.91-1.93,3.95-1.36,5.54,6.99,19.75,14.18,39.44,21.31,59.15ZM256.88,41.51c.46,2.27,.36,3.32,.85,3.93,7.34,9.23,8.87,20.07,10.53,31.12,.76,5.09,1.11,11.31,7.64,15.07,.41-2.09,1.11-3.68,.96-5.19-.88-8.57-2.05-17.12-2.95-25.69-1.02-9.68-8.46-13.93-17.02-19.24Zm42.62,179.62l1.23,1.05c.72-.22,1.61-.25,2.15-.67,14.66-11.55,29.87-22.64,37.77-40.01,.61-1.34,1.56-2.6,2.57-3.71,3.57-3.9,1.45-10.4-4.58-12.43-1.61,6.36-7.01,11.75-4.45,19.13,.33,.95-.54,2.56-1.31,3.53-2.83,3.58-5.5,7.37-8.86,10.46-6.65,6.11-13.78,11.75-20.58,17.71-1.57,1.38-2.64,3.28-3.94,4.94Zm-10.96-44.01l-2.07-1.1c-1.48,2.31-3.08,4.56-4.41,6.94-1.26,2.25-1.55,5.09-5.73,3.79-5.07-1.57-7.63,1.21-7.38,6.37,.11,7.32,.01,14.8-1.44,22.03,10.63-11.27,17.76-23.77,21.03-38.03Zm-211.4-43.64l-1.67-.46c-.66,1.39-1.6,2.72-1.92,4.17-3.14,14.03-6.31,28.06-9.05,42.16-.3,1.56,2,3.59,3.1,5.4,1.93-1.49,4.89-2.65,5.55-4.54,1.08-3.08,.59-6.64,.87-9.99,1.02-12.25,2.08-24.49,3.12-36.73Zm68.96,5.77c-2.93,9.41-13.5,15.3-11.23,25.8l1.95,.91c6.83-11.91,13.65-23.82,20.62-35.96-12.8-3.97-18.55-1.62-18.94,6.82,2.29,.73,4.65,1.49,7.6,2.43Zm213.3-72.76l-2.34,1.21c1.5,2.63,3.27,5.16,4.44,7.92,1.1,2.61,2.57,5.6,2.16,8.17-1.26,7.83,2.98,14.05,5.83,20.65,.41,.96,3.51,1.51,5.1,1.16,1.27-.28,3.18-2.4,3-3.42-1.05-5.83-1.54-12.11-4.31-17.21-3.61-6.66-9.15-12.36-13.87-18.47ZM64.08,215.98c-.32,.17-.94,.36-.93,.5,.81,10.91,.14,22.05,5.43,32.28,.56,1.08,1.31,2.39,1.11,3.44-1.25,6.55-.15,8.65,6.58,11.59,2.04-4.32-7.67-42.38-12.2-47.82Zm153.58-2.44c5.36-5.05,14.04-33.84,11.98-38.79-10.53,4.96-16.1,22.48-11.98,38.79Zm-39.18-139.59c6.64-14.85,12.88-28.81,19.31-43.18-10.26,6.72-15.79,16.29-21.18,25.81-3.22,5.7-.45,11.28,1.87,17.37Zm-.91-34.97l-.32-1.11c-1.9,1.45-4.3,2.57-5.62,4.4-10.58,14.45-15.91,31.43-17.69,48.84l1.23,.12c7.47-17.42,14.94-34.83,22.41-52.25Zm230.76,223.87c.52-2.04,1.61-3.91,1.32-5.56-1.6-9.01-3.53-17.97-5.38-26.94-.15-.72-.38-1.69-.92-2.01-1.74-1.04-3.65-1.83-5.49-2.72-.72,1.55-2.11,3.13-2.05,4.65,.33,8.71,1.74,17.16,9.14,23.32-2.09,3.93-4.28,7.7,3.39,9.26Zm-202.15-99.38c-11.28,11.23-16.03,26.44-10.78,33.77,9.38-4.69,14.7-20.81,10.78-33.77Zm-124.93,30.63l-1.76,.25c-1.04,16.94-.14,33.57,8.55,49.57,3.86-4.98,3.58-5.97,1.86-11.46-3.76-12.59-7.55-25.26-8.65-38.36Zm252.13-39.08c-9.6,12.08-15.91,25.44-18.75,40.27,11.32-11.26,15.65-25.55,18.75-40.27Zm-196.32-41.64c4.98,1.33,6.9-.14,7.51-3.9,2-11.11,4.19-22.17,4.94-33.44l-2.26-.27c-5.66,11.97-8.13,24.7-10.19,37.61Zm237.05,33.65c-.24,15.19,8.18,27.77,13.61,41.26,.95-15.36-3.99-28.98-13.61-41.26Zm-128.44,35.4c5.01-11.19,6.65-23.08,8.47-35.76-10.13,4.88-13.23,18.23-8.47,35.76ZM49.08,223.68c-4.93,8.53,5.77,34.33,15.69,37.45-5.42-12.95-10.32-24.62-15.69-37.45Zm48.18-55.34l-2.3,.14c-.45,2.46-1.32,4.92-1.27,7.37,.14,6.37,.53,12.74,1.18,19.07,.2,1.99,1.53,3.87,2.35,5.8,1.51-1.94,4.48-4.02,4.29-5.79-.96-8.91-2.75-17.74-4.25-26.59Zm36.91,26.48l2.99,.28,13.04-34.12-1.53-.7c-.61,.39-1.5,.65-1.78,1.2-4.59,9.1-9.26,18.18-13.5,27.44-.72,1.56,.47,3.92,.78,5.91Zm100.79-109.91c3.59-1.83,6.5-3.22,9.29-4.8,.94-.53,2.27-1.57,2.24-2.34-.14-4.8-.62-9.59-.98-14.38l-2.47-.08c-4.13,6.75-9.48,13.09-8.08,21.6Zm-169.51,60.46c-7.29,3.81-11.62,28.5-7.7,36.92,2.66-12.78,5.18-24.85,7.7-36.92Zm169.48-30.51c4.36-2.61,12.12-22.32,11-27.91-5.93,1.37-14.29,22.59-11,27.91Zm-68.56,93.44c8.21-1.7,21.27-24.58,17.22-29.74-5.92,10.23-11.57,19.98-17.22,29.74Zm104.08-52.26c-4.01,5.19-7.58,22.86-5.62,27.81,8.04-7.68,10.37-19.19,5.62-27.81Zm-103.57-43.4c6.43-10.26,5.32-21.46,4.53-32.63-4.86,10.41-6.13,21.32-4.53,32.63ZM212.39,26.53l-2.15,.96c6.28,4.16,2.78,8.43,1.28,12.71-1.06,3-1.79,6.12-3.07,9.03-1.65,3.75-.56,5.91,5.1,7.49,1.45-8.24,3.23-16.14,3.94-24.12,.17-1.87-3.3-4.04-5.1-6.06Zm17.88,117.97c-3.76,9.47-7.52,18.93-11.28,28.4l1.52,.55c13.35-15.83,14.64-19.09,9.76-28.94Zm55.49-20.81c-6.52,3.8-6.31,15.67,.36,19.71,5.65-5.02,5.52-12.06-.36-19.71Zm-78.37-3.72c-.78-1.02-1.59-2.85-2.3-2.82-1.5,.07-3.72,.75-4.3,1.83-2.22,4.15-4.16,8.47-5.62,12.91-.4,1.23,1.22,3.07,1.91,4.62,1.35-.56,3.46-.78,3.93-1.73,2.32-4.72,4.2-9.64,6.37-14.81Zm33.88-75.92c-6.59,2.71-6.86,8.02-6.7,13.31,.04,1.44,1.02,3.34,2.22,4.08,.79,.48,2.96-.46,4.12-1.27,4.27-2.96,4.43-9.26,.36-16.12ZM105.52,248.94l2.82,1.99c2-2.69,4.21-5.27,5.91-8.13,1.04-1.75,2.38-4.64,1.6-5.75-1.05-1.49-4.41-2.81-6.06-2.25-1.84,.62-3.59,3.26-4.1,5.3-.69,2.8-.17,5.88-.17,8.83Zm143.81-42.02c3.1-5.39,5.75-9.67,7.98-14.15,.42-.85-.48-3.03-1.43-3.59-1.06-.62-3.13-.57-4.29,.03-3.5,1.81-5.48,12.44-2.27,17.71Zm161.09-68.96c-3.53-7.62-7.05-15.24-10.69-23.09-4.43,4.3,2.45,20.66,10.69,23.09ZM107.29,229.37c-1.62-7.84-2.94-14.29-4.45-21.61-6.89,6.19-4.93,16.07,4.45,21.61Zm-34.69-39.83c-5.24,4.17-4.32,19.78,0,27.65v-27.65ZM148.09,53.74c9.85,1.61,17.43-5.34,16.78-14.23-5.88,4.99-11.33,9.61-16.78,14.23Zm-62.76,104.63c-3.76,6.05-2.34,18.54,2.9,23.31-1.66-8.1,3.38-15.71-2.9-23.31Zm121.68,79.64c-.52-.45-1.05-.9-1.57-1.35-6.55,7.6-13.1,15.2-17.96,20.84,5.67-.8,17.75-11.36,19.53-19.49Zm255.63-42.76c6.68-7.62,8.36-21.45,4.17-27.84-1.35,9-2.64,17.65-4.17,27.84ZM370.42,50.23c3.3,6.98,6.5,14.03,14.08,18-.98-8.61-7.67-13.2-14.08-18Zm87.69,79.6c4.38-8.23,1.16-15.24-7.88-18.36,2.68,6.26,4.97,11.57,7.88,18.36ZM130.98,263.18c9.51-4.24,16.35-10.68,20.29-19.62l-1.2-1.05c-6.36,6.89-12.73,13.78-19.09,20.67Zm-11.09-146.06l3.21,.36c.83-7.57,1.66-15.14,2.49-22.71l-1.85-.25c-1.38,7.52-5.46,14.64-3.85,22.6Zm98.56,3.45l1.96,.91,8.24-14.94c-9.21,1.61-11.93,6.25-10.2,14.03Zm-88.55,79.58l-2.14,.73c-.99,1.38-2.33,2.64-2.89,4.16-.68,1.81-.7,3.85-1,5.79,1.26,.12,2.86,.77,3.72,.26,1.85-1.07,4.47-2.61,4.65-4.19,.26-2.14-1.47-4.49-2.34-6.75Zm97.08-73.25c-7.21,2.88-8.38,8.87-3.16,16.15l3.16-16.15Zm-11.11,111.84l1.2,1.06c10.3-6.82,15.67-12.98,15.5-19.45-6.12,6.74-11.41,12.56-16.7,18.39ZM338.44,53.98c-3.92-7.61-10.39-11.38-19.29-11.29,6.43,3.76,12.86,7.53,19.29,11.29ZM196.15,25.34c5.52,5.82,10.17,4.46,15.03-3.86-6.01,1.54-10.52,2.7-15.03,3.86Zm222.21,65.58l1.76-1.03c1.03-5.14-5.23-12.59-11.43-12.79,3.38,4.83,6.52,9.33,9.66,13.82Zm-195.51-2.53l2.7,.19c.54-5.25,1.08-10.5,1.62-15.75l-2.07-.22c-2.18,5.07-5.15,10.03-2.25,15.78Zm12.74,99.53c-2.06,5.63-3.9,10.66-6.02,16.46,8.73-4.89,10.45-9.52,6.02-16.46Zm-136.74-36.13c4.77-5.94,4.93-11.96,.7-16.7-3.29,5.53-.52,10.64-.7,16.7Zm23.78-92.75l1.22,1.06c5.12-4.91,10.23-9.82,15.35-14.73l-.79-.77c-5.26,4.81-10.52,9.62-15.77,14.43Zm-22.26,29.07l-3.88,13.71c6.86-3.23,7.91-7.03,3.88-13.71Zm-52.59,103.97c-1.09,4.43-2.11,7.8-2.65,11.23-.15,.97,.98,2.22,1.78,3.13,.15,.17,2.19-.56,2.3-1.08,.84-4.01,3.47-8.16-1.43-13.28Zm246.2-42.2c-7.59,1.51-9.65,7.02-5.49,13.89,1.98-5.02,3.55-8.98,5.49-13.89ZM64.2,287.26l1.92-.46c.6-7.56-1.01-11.68-7.13-14.29,1.74,4.92,3.47,9.83,5.21,14.75ZM238.28,31.1l-.92-1.45c-1.53,.56-3.68,.71-4.47,1.77-3.25,4.37-3.21,8,.26,10.69,1.77-3.81,3.45-7.41,5.13-11.01Zm-47.32-5.58c-4.08,1.41-8.16,2.82-13.34,4.6,6.65,4.09,9.33,3.19,13.34-4.6Zm3.75,134.64c-4.44,3.1-4.86,6.32-.87,10.29,2.38-3.12,6.44-5.7,.87-10.29Zm257.9,45.48c1.06,.09,2.11,.18,3.17,.26l1.22-11.84c-1.01-.1-2.02-.2-3.03-.3-.45,3.96-.91,7.92-1.36,11.88ZM113.82,112.3l-2.91-.51c-.53,3.85-1.06,7.69-1.58,11.54l3.31,.36c.39-3.8,.79-7.59,1.18-11.39Zm162.83,7.15c5.83-4.72,5.55-7.75,0-10.74v10.74Zm-124.42,58.94l3.1,.9c.93-3.27,1.87-6.55,2.8-9.82-.96-.26-1.91-.52-2.87-.79l-3.03,9.7ZM206.39,37.14c-6.98,3.69-8.1,6.86-4.36,11.25,1.38-3.56,2.67-6.88,4.36-11.25ZM110.36,175.97l-3,.13,.54,8.87,2.46-.08v-8.92Zm150.48-34.11l3.04-.3c-.34-2.93-.68-5.86-1.02-8.8-.98,.1-1.96,.2-2.94,.29,.31,2.94,.61,5.87,.92,8.81Z"/><path class="cls-1" d="M240.33,584.16c-13.16,6.09-17.89,18.4-24.07,29.48-3.59,6.43-4.53,13.51-1.65,20.74,.46,1.16-.79,2.94-1.24,4.44-1.75-1.01-4.77-1.76-5.06-3.07-2.05-9.03-1.51-18.01,3.25-26.28,4.64-7.77,9.79-15.4,15.19-22.7-13.77-13.59,1.59-31.12,17.31-16.51,10.32-5.31,20.75-1.87,30.96-.07,3.31,.58,4.57,.5,6.57-2.15,2.57-3.4,5.83-6.71,9.55-8.86,6.31-3.65,13.53,.13,19.48,9.34,3.23,4.84,1.34,10.01-3.98,14.1,4.57,6.22,9.35,12.33,13.69,18.72,7.69,11.64,6.14,29.73-5.47,36.95-1.32,.52-4.17,.44-4.47-.19-.64-1.34-.78-3.79,.11-4.77,19.41-20.76,1.34-35.45-14.58-50.65-.64-.65-1.15-1.43-2.45-3.07,3.01-.63,5.28-1.29,7.61-1.57,5.06-.6,6.16-3.78,3.87-7.1-1.96-2.83-7.01-7.02-8.26-6.37-3.93,2.04-7.88,5.6-9.65,9.47-2.66,5.8-2.28,6.2-8.28,3.38-10.86-5.1-21.85-7.07-33.39-1.48-1.16,.56-3.81-1.79-5.82-2.7-2.33-1.06-4.91-3.05-7.02-2.69-1.77,.3-3.83,3.21-4.32,5.28-.83,3.5,.61,6.11,5.29,5.92,2.24-.09,4.51,.58,6.76,.91l.07,1.49Z"/><path class="cls-1" d="M435.42,333.62c.83-10.45,9.91-8.8,14.65-12.38,.71-2.41,.62-5.01,.98-7.49,2.32,1.1,5.58,1.63,6.78,3.41,3.89,5.82,8.12,11.81,10,18.31,1,3.46-1.46,9.11-4.34,11.98-3.61,3.61-9.11,5.66-14.1,7.72-1.19,.49-3.58-1.67-5.41-2.61,1.27-1.44,2.29-3.74,3.87-4.17,7.6-2.1,10.55-4.61,11.61-10.95,1.06-6.38-2.55-9.93-9.17-8.61-2.81,.56-5.4,2.05-8.13,2.98-1.85,.63-3.79,1.03-6.72,1.81Z"/><path class="cls-1" d="M311.29,670.19c-10.21,3.29-15.25-2.48-11.8-10.84,3.09,2.69,4.62,5.08,6.3,8.46,1.89-1.23,3.9-2.34,5.62-3.76,.7-.58,.8-1.84,1.42-3.44,1.13,1.38,2.32,2.16,2.37,3,.48,8.55,1.2,17.31-5.44,24.24-1.42,1.49-4.7,1.6-7.17,1.81-.75,.06-1.68-1.66-2.52-2.56,.91-.72,1.71-1.79,2.75-2.1,8.24-2.47,10.18-5.77,8.48-14.82Z"/><path class="cls-1" d="M246.39,600.54c.12,3.93-4.38,8.55-8.39,8.63-9.98-.5-11.54-15.96-.29-16.7,4.53-.24,8.54,3.48,8.68,8.07Z"/><path class="cls-1" d="M308.16,600.19c-.14,4.72-3.99,8.95-8.13,8.96-3.89,0-8.3-5.58-8.23-10.4,.05-3.64,3.98-6.81,8.13-6.56,4.4,.27,8.35,4.11,8.23,8Z"/><path class="cls-1" d="M211.36,673.95v-21.21c6.16,3,2.28,9.44,5.54,13.37,6.13,.62,7.76-10.25,15.69-5.73-2.66,2.7-5.24,5.31-7.79,7.9,2.1,1.73,3.83,3.15,5.55,4.57-.37,.54-.73,1.07-1.1,1.61-4.27-1.38-8.54-2.75-12.83-4.14-1.01,1.31-2.13,2.76-3.25,4.21-.6-.19-1.2-.38-1.81-.58Z"/><path class="cls-1" d="M256.1,601.66c2.56,1.97,5.12,3.95,8.09,6.24,2.2-2.26,4.17-4.84,6.74-6.69,1.37-.99,3.76-.7,5.69-.99-.21,1.7,.05,3.64-.75,5.04-1.19,2.09-3.03,3.88-4.78,5.63-2.19,2.19-4.06,5.65-8.18,3.19-4.4-2.62-9-5.25-8.62-10.98,.6-.48,1.21-.96,1.81-1.44Z"/><path class="cls-1" d="M229.64,630.18c-1.37-4.85-3.01-9.16-3.71-13.6-.46-2.94,1.91-3.55,4.23-1.93,3.56,2.49,6.84,5.13,11.32,1.42,.51-.42,2.33,.58,3.55,.93-.57,1.67-.6,4.01-1.8,4.88-3.86,2.8-8.16,5.06-13.59,8.3Z"/><path class="cls-1" d="M277.64,659.75c2.09,.82,3.44,1.35,5,1.96-.26,2.74-.54,5.81-.85,9.09,8.5,.05,6.42-6.95,8.67-11.21,4.97,2.92,4.17,6.56,2.33,10.7,1.63,.39,3.01,.72,4.76,1.15-.31,.66-.43,1.58-.9,1.79-1.94,.87-4.96,2.69-5.8,2.05-2.54-1.94-4.47-1.47-7.26-.81-4.03,.96-7.48-3.45-7.26-8.89,.07-1.82,.8-3.62,1.32-5.82Z"/><path class="cls-1" d="M337.09,675.3c-2.77-1.26-5.05-2.29-6.33-2.87-3.41,.74-6.57,2.35-8.98,1.64-1.86-.54-4.13-4.22-3.79-6.11,.54-3,2.41-6.69,4.96-8.26,4.29-2.65,7.12,.38,8.83,4.31,1.46,3.35,3.1,6.62,5.31,11.29Zm-9.25-12.8c-5.09,.69-5.39,1.07-6.1,8.01,5.29-.81,6.42-3.75,6.1-8.01Z"/><path class="cls-1" d="M253.02,675.39c-2.88-1.35-5.14-2.41-6.04-2.83-3.93,.65-7.22,2.09-9.8,1.32-1.74-.52-3.76-4.42-3.32-6.32,.67-2.92,2.72-6.37,5.3-7.89,4.56-2.7,6.89,.88,8.55,4.57,1.48,3.29,3.1,6.53,5.3,11.15Zm-9.45-13.17c-5.72,.27-5.4,4.14-6.4,8.12,6.2-.48,6.7-3.81,6.4-8.12Z"/><path class="cls-1" d="M287.38,623.15c1.41-2,2.06-3.99,3.38-4.55,1.83-.78,4.16-.49,6.28-.66-.06,3.35,.28,5.82-3.25,7.66-2.51,1.42-5.88,4.16-7.64,3.46-2.54-1.01-4.31-4.42-5.69-7.13-.59-1.17,.62-3.17,1.01-4.8,1.42,1.08,2.89,2.1,4.22,3.26,.54,.47,.78,1.24,1.68,2.76Z"/><path class="cls-1" d="M259.84,661.19h9.8l1.3,1.07c-2.8,2.84-5.6,5.69-8.59,8.73,4.21,.26,8.31,.52,12.41,.77l-.09,1.61h-20.3c4.27-3.79,7.04-6.25,10.18-9.04l-4.92-1.79,.21-1.36Z"/><path class="cls-1" d="M201.98,619.31c-8.16-2.11-17.59-.77-24.58-8.24,6.08-1.51,22.1,3.78,24.58,8.24Z"/><path class="cls-1" d="M206.46,626.51c-5.35,3.88-9.09,6.23-14.66,9.04-1.25,.6-3.24,.76-4.41,.2-5.15-6.4,12.77-11.75,19.07-9.24Z"/><path class="cls-1" d="M221.84,567.22c-4.93,2.17-8.62,.14-9.38-3.21-.77-3.37,1.03-7.3,1.94-10.93,.06-.24,2.38-.4,3.2,.08,.74,.44,1.51,2.2,1.17,2.72-3,4.58-.38,7.94,3.08,11.34Z"/><path class="cls-1" d="M359.82,597.43c-4.73,1.38-12.13-2.83-15.38-8.74,5.17-2.88,12.17,1.1,15.38,8.74Z"/><path class="cls-1" d="M338.75,593.58c-5.29-1.05-9.85-1.82-14.32-2.94-1.03-.26-2.03-1.64-2.42-2.71-.15-.42,1.28-1.74,2.21-2.08,5.34-1.93,12.45,1.67,14.52,7.73Z"/><path class="cls-1" d="M268.12,551.36c-1.34-1.21-4.08-2.6-4.02-3.86,.13-2.72,1.07-5.92,2.91-7.87,1.26-1.34,4.6-.9,7.87-1.38-2.44,4.73-4.21,8.17-6.76,13.11Z"/><path class="cls-1" d="M363.14,616.6c-.87,1.38-1.2,2.44-1.62,2.47-1.06,.09-2.59,.07-3.16-.55-2.55-2.79-4.94-5.73-7.14-8.78-.51-.71-.44-2.38,.11-3.05,.52-.63,2.66-1.03,3.01-.65,3.09,3.43,5.94,7.05,8.8,10.55Z"/><path class="cls-1" d="M281.62,589.68c-2.6,2.26-4.71,4.91-5.46,4.59-2.32-.97-4.13-3.07-6.13-4.73,1.72-1.76,3.21-4.5,5.24-4.93,1.37-.29,3.5,2.67,6.35,5.07Z"/><path class="cls-1" d="M245.73,538.85c1.54,3.78,2.92,7.18,3.75,11.05,.18,1.03-1.11,2.78-2.22,3.39-.8,.44-3.36-.22-3.51-.78-.91-3.37-1.53-6.85-1.79-10.32-.06-.75,1.78-1.63,3.78-3.33Z"/><path class="cls-1" d="M260.64,590.58c-2.57,2.66-4.24,4.39-5.91,6.12-1.38-1.69-3.52-3.21-3.97-5.1-.63-2.62,.28-5.73,4.07-5.29,1.72,.2,3.2,2.26,5.81,4.26Z"/><path class="cls-1" d="M338.68,620.43c4.08,2.52,8.24,4.94,12.17,7.67,.51,.35,.22,3.04-.34,3.27-2.58,1.1-12.58-6.21-13.06-9.31,.41-.54,.82-1.09,1.23-1.63Z"/><path class="cls-1" d="M206.18,592.28c-5.06,3.32-15.11,.67-18.18-4.65,6.98-.98,12.17,2.15,18.18,4.65Z"/><path class="cls-1" d="M209.83,581.6c-5.73,.74-13.97-4.45-13.81-8.09,.04-.88,3.07-2.53,3.25-2.37,3.49,3.19,6.76,6.6,10.56,10.45Z"/><path class="cls-1" d="M313.7,545.29c-3.29,4.15-5.39,6.93-7.69,9.55-.48,.55-1.96,.93-2.53,.63-.91-.48-2.23-1.95-2.01-2.4,1.17-2.45,2.31-5.23,4.37-6.87,1.41-1.12,4.28-.58,7.87-.91Z"/><path class="cls-1" d="M341.92,554.79c-3.78,1.84-6.6,3.43-9.61,4.54-.92,.34-3.06-.37-3.41-1.12-.49-1.05-.33-2.98,.42-3.86,3.75-4.36,7.74-2.83,12.6,.44Z"/><path class="cls-1" d="M284.89,547.54c-3.3,3.25-5.81,5.72-8.31,8.19-1.05-1.16-3.21-3.07-2.98-3.37,1.93-2.58,4.19-4.98,6.64-7.12,.33-.29,2.3,1.1,4.66,2.3Z"/><path class="cls-1" d="M345.93,616.34c-4.57-1.63-8.43-2.9-12.18-4.43-.86-.35-1.58-1.55-1.82-2.49-.1-.41,1.06-1.39,1.83-1.67,4-1.46,11.16,3.12,12.17,8.59Z"/><path class="cls-1" d="M335.18,573.19c-4.28,1.54-7.61,2.91-11.06,3.85-.83,.23-2.8-.82-3-1.59-.33-1.22,.08-3.73,.7-3.9,4.14-1.11,8.47-2.16,13.36,1.64Z"/><path class="cls-1" d="M293.25,547.61c-1.2-1.68-2.51-2.69-2.35-3.44,.55-2.74,1.45-5.46,2.6-8.03,.17-.38,2.42,.09,3.71,.17-.39,2.34-.6,4.72-1.26,6.99-.39,1.33-1.51,2.47-2.7,4.32Z"/><path class="cls-1" d="M190.71,572.71c-6.86,1.97-8.35-2.36-10.71-5.45-.31-.41,.25-2.06,.76-2.26,.91-.34,2.55-.41,3.1,.13,2.43,2.38,4.59,5.02,6.84,7.57Z"/><path class="cls-1" d="M234.47,543.25c-1.72,4.26-2.72,6.76-3.92,9.73-4.14-.95-5.1-4.28-4.14-7.06,.46-1.33,4.45-1.57,8.06-2.67Z"/><path class="cls-1" d="M335.25,642.89c-2,1.33-3.88,2.88-4.11,2.69-1.94-1.68-3.58-3.67-5.32-5.57,1.29-.86,3.24-2.72,3.74-2.41,1.92,1.16,3.37,3.02,5.68,5.29Z"/><path class="cls-1" d="M204.65,556.55c-5.66,2.27-7.49-.97-9.17-4.02-.36-.65,.28-2.41,.99-2.79,.74-.41,2.53-.15,3.12,.46,1.78,1.83,3.21,3.97,5.06,6.35Z"/><path class="cls-1" d="M209.18,405.04c2.85-.22,6.07-1.37,8.5-.51,30.24,10.4,62.01,6.81,90.99-4.59,1.82-.69,3.7-1.88,5.5-1.8,2.04,.09,4.03,1.35,6.04,2.09-1.22,1.61-2.07,4.03-3.71,4.69-7.07,2.82-14.25,5.54-21.62,7.54-33.77,9.63-48.6,6.68-81.55-2.42-1.65-.42-2.96-2.05-4.42-3.12,.09-.63,.18-1.26,.27-1.88Z"/><path class="cls-1" d="M310.39,312.31c1.94-2.16,3.87-5.69,6.92-7.24,6.05-2.24,15.64,5.19,11.34,11.88-1.27,2.1-1.99,4.59-3.61,6.36-1.49,1.64-4.05,3.74-5.79,3.48-2.27-.34-4.89-2.42-6.08-4.44-1.48-2.49-1.66-5.69-2.77-10.05Z"/><path class="cls-1" d="M189.56,323.53c0-6.21,4.05-11.45,8.85-11.48,3.94-.03,9.18,6.31,9.08,10.97-.12,5.16-4.67,11.35-8.47,11.52-4.9,.23-9.46-5.09-9.46-11.01Z"/><path class="cls-1" d="M258.41,352.01c-8.21-1.42-10.46-4.9-7.11-10.35,.9-1.46,3.27-2.77,5.02-2.82,.98-.03,2.81,2.57,2.94,4.09,.24,2.86-.48,5.79-.85,9.09Z"/><path class="cls-1" d="M313.01,256.1c5.61-5.44,16.1-7.01,20.28-3.86,.66,.49,.06,3.69-.01,3.69-6.33,.18-12.67,.16-20.27,.16Z"/><path class="cls-1" d="M189.2,279.34c-6.3,1.16-11.73,2.28-17.21,3-.61,.08-2.5-2.51-2.19-3.19,1.56-3.39,15.28-3.99,19.4,.19Z"/><path class="cls-1" d="M65.33,338.64c13.77-1.89,22.64,5.99,22.48,17.77-.04,3,0,5.99,.04,8.99,.03,3.06-1.52,4.6-4.72,4.22-3.2-.38-4.27-2.23-3.54-5.2,.63-2.57,2.53-5.26-1.87-6.93-5.72-2.17-7.78-1.45-9.33,4.34-.77,2.88-1.3,5.81-1.93,8.67-12.44,.25-6.95-7.18-3.39-13.74,3.02-5.16,5.53-11.23,14.54-6.14l.1-1.96c-4.12-3.33-8.25-6.67-12.37-10Z"/></svg>